PathFileType	4	(X/Y/Z)	C:/Users/opensim2020/Desktop/walking_exp_matlab/subject03_walking13_straight_02.trc	
DataRate	CameraRate	NumFrames	NumMarkers	Units	OrigDataRate	OrigDataStartFrame	OrigNumFrames	
100.00	100.00	5	46	mm	100.00	1223	193	
Frame#	Time	LFHD			RFHD			LBHD			RBHD			C7			T10			CLAV			STRN			RBAK			LSHO			LUPA			LELB			LFRM			LWRA			LWRB			LFIN			RSHO			RUPA			RELB			RFRM			RWRA			RWRB			RFIN			LASI			RASI			LPSI			RPSI			LTHI			LKNE			LTIB			LANK			LHEE			LTOE			RTHI			RKNE			RTIB			RANK			RHEE			RTOE			*39			*40			*41			*42			*43			*44			*45			
		X1	Y1	Z1	X2	Y2	Z2	X3	Y3	Z3	X4	Y4	Z4	X5	Y5	Z5	X6	Y6	Z6	X7	Y7	Z7	X8	Y8	Z8	X9	Y9	Z9	X10	Y10	Z10	X11	Y11	Z11	X12	Y12	Z12	X13	Y13	Z13	X14	Y14	Z14	X15	Y15	Z15	X16	Y16	Z16	X17	Y17	Z17	X18	Y18	Z18	X19	Y19	Z19	X20	Y20	Z20	X21	Y21	Z21	X22	Y22	Z22	X23	Y23	Z23	X24	Y24	Z24	X25	Y25	Z25	X26	Y26	Z26	X27	Y27	Z27	X28	Y28	Z28	X29	Y29	Z29	X30	Y30	Z30	X31	Y31	Z31	X32	Y32	Z32	X33	Y33	Z33	X34	Y34	Z34	X35	Y35	Z35	X36	Y36	Z36	X37	Y37	Z37	X38	Y38	Z38	X39	Y39	Z39	X40	Y40	Z40	X41	Y41	Z41	X42	Y42	Z42	X43	Y43	Z43	X44	Y44	Z44	X45	Y45	Z45	X46	Y46	Z46	

145	1.440	1460.92468	-520.79736	1629.95361	1329.60095	-496.69376	1631.98804	1479.22290	-395.10724	1583.82971	1349.59302	-376.20663	1585.49390	1422.07190	-360.07312	1418.95483	1420.25244	-342.91391	1104.65173	1410.50818	-486.00143	1350.72205	1415.29688	-539.64136	1188.99036	1328.89893	-311.62769	1239.40344	1569.91907	-449.09744	1386.43481	1644.89319	-455.22986	1189.68066	1656.60571	-469.69574	1066.92249	1652.87756	-499.38010	939.62244	1622.48804	-511.40131	820.61859	1677.71667	-503.73303	828.16516	1668.71582	-521.02704	746.37897	1255.08667	-423.98846	1370.66199	1185.14221	-432.81754	1147.50537	1173.89673	-455.71390	1036.60852	1174.41370	-484.96481	902.64746	1210.44861	-527.15741	812.61865	1169.52942	-492.52634	801.91602	1180.51501	-525.62653	734.60199	1534.00232	-513.56641	950.44739	1298.01465	-509.98352	946.81171	1485.95435	-351.32507	969.74158	1337.23059	-350.07495	969.50342	1569.11523	-455.65594	645.23651	1524.81287	-448.85992	470.04642	1527.87280	-382.13092	281.73880	1484.73132	-342.61301	75.40532	1449.66418	-298.93152	42.30750	1455.64197	-492.89972	37.24384	1257.88135	-529.11078	652.52209	1288.19653	-605.39819	490.20679	1286.94592	-519.70325	316.96988	1331.57239	-429.66656	121.47967	1386.04016	-378.43372	102.49034	1341.35474	-546.62396	45.79379				1425.34827	-429.82538	1689.07764															 
146	1.450	1460.46777	-532.52203	1629.53088	1329.38403	-508.54578	1631.56409	1479.10925	-407.13428	1583.22009	1349.44446	-388.16360	1584.80737	1421.74548	-372.38910	1418.19116	1420.36426	-354.99170	1104.16516	1410.61145	-498.41098	1350.12109	1416.03772	-551.94531	1188.35571	1329.04797	-324.14294	1238.64404	1569.73853	-461.08740	1386.16895	1645.49756	-469.21198	1190.05200	1657.72827	-486.74240	1067.85620	1653.62341	-520.40149	941.54004	1622.64685	-536.93524	823.25708	1677.72229	-528.39105	830.21851	1668.64880	-548.97253	749.32880	1255.03479	-436.61395	1369.68127	1185.36047	-443.39124	1146.26550	1173.99365	-464.74747	1035.14856	1174.16846	-491.49533	900.59381	1209.63196	-532.17090	809.82263	1169.00159	-497.21805	799.76624	1180.05652	-528.30792	731.38959	1534.91614	-524.43530	949.33960	1298.76624	-522.99841	946.51355	1485.47229	-362.72647	969.20386	1336.85046	-362.55133	968.88702	1568.98401	-461.83157	644.47333	1524.88464	-452.41672	469.51486	1527.39819	-383.78104	282.16415	1484.31299	-342.77213	76.01951	1449.13062	-299.02957	43.22971	1455.69958	-492.97229	37.14044	1258.09851	-544.57617	653.42468	1289.74585	-621.45288	491.66284	1288.37903	-545.52423	313.02139	1333.50610	-468.58710	111.88743	1387.97827	-418.77100	89.71199	1343.47485	-590.69843	44.56064				1425.19580	-441.62659	1688.46216															 
147	1.460	1460.49268	-544.52759	1629.01831	1329.23962	-520.44318	1630.85974	1478.95129	-419.10455	1582.33142	1349.38293	-400.11124	1583.80188	1421.51965	-384.59589	1417.49426	1420.04504	-367.30692	1103.15649	1410.67297	-510.83420	1349.11035	1416.75098	-564.27197	1187.35315	1329.31592	-336.56079	1237.71423	1569.71960	-473.00122	1385.78076	1646.19897	-483.25699	1190.16907	1658.72095	-503.32306	1068.39746	1654.32520	-541.43933	943.44849	1622.91553	-563.36859	826.52386	1677.54028	-552.95245	832.23834	1668.30847	-576.68671	752.37567	1254.90186	-449.50385	1368.32251	1185.72302	-453.75815	1144.60181	1173.97949	-473.96698	1033.37415	1173.85107	-498.10269	898.34235	1208.98291	-537.10382	806.55542	1168.45801	-501.91882	797.37299	1179.57910	-531.10571	728.39252	1535.76404	-535.33600	948.15454	1299.42395	-536.00995	945.93549	1484.83789	-374.08405	968.30243	1336.37390	-375.06558	967.95490	1568.39392	-468.82492	643.98260	1524.94421	-456.22601	468.94128	1527.25781	-385.40988	282.67667	1483.92126	-343.05707	76.70631	1448.70996	-299.19742	44.17596	1455.75049	-492.91125	36.81214	1257.66724	-560.09619	653.83356	1291.04236	-636.91119	492.38327	1289.29626	-571.28766	308.97473	1335.19739	-508.49237	103.10522	1388.37048	-459.71048	77.75859	1345.93970	-634.94757	44.28458				1425.02295	-453.29858	1687.69971															 
148	1.470	1460.35022	-556.28741	1628.23901	1329.07825	-532.28705	1629.99463	1478.77515	-431.00266	1581.14636	1349.16858	-412.21771	1582.47827	1420.99426	-397.25912	1416.31287	1419.64722	-379.47876	1102.06787	1410.79382	-523.30414	1347.92224	1417.53845	-576.51642	1185.95764	1329.31543	-349.28732	1236.31641	1569.72717	-484.81064	1384.92310	1646.83203	-497.33981	1190.05457	1659.85742	-520.19598	1068.97278	1655.00464	-562.38196	945.29944	1622.79858	-588.66266	829.41321	1677.37793	-577.71002	834.44324	1667.81091	-604.26038	755.50452	1254.79846	-462.45041	1366.74988	1185.84021	-464.60287	1142.85608	1173.95972	-483.37329	1031.39319	1173.63806	-504.91516	895.91333	1208.42017	-542.26556	803.30255	1167.95557	-506.82751	794.83740	1178.96143	-534.32135	725.03992	1536.47839	-546.45770	947.01190	1299.92480	-549.11011	944.94824	1483.94812	-385.55646	967.06891	1335.58948	-387.65771	966.62292	1567.85730	-475.85187	643.54352	1525.19641	-460.49863	468.43118	1527.02417	-387.42453	283.19684	1483.57825	-343.12872	77.39970	1448.07275	-299.35803	45.12504	1455.72913	-493.01953	36.56940	1257.05188	-575.80896	653.99921	1292.13818	-651.65686	492.31403	1290.43494	-597.12823	304.97620	1336.77490	-548.91937	95.22095	1390.94165	-502.58749	66.82812	1348.60779	-678.83093	44.79831				1424.77112	-464.92191	1686.59387															 
149	1.480	1460.22620	-567.99316	1627.30798	1328.90540	-544.16321	1628.87048	1478.58069	-442.89157	1579.75183	1348.96826	-424.18039	1580.91736	1420.59814	-409.78329	1415.00769	1419.19446	-391.47128	1100.97632	1410.96985	-535.85748	1346.53723	1418.35681	-588.81659	1184.42566	1329.46472	-361.84067	1234.84717	1569.62695	-496.79022	1383.89368	1647.43335	-511.41769	1189.66504	1660.80042	-536.78247	1069.05591	1655.78821	-583.27155	947.17450	1622.72864	-614.15332	832.62433	1677.07532	-602.09149	836.59894	1667.09607	-631.60248	758.74969	1254.67383	-475.54581	1364.83057	1185.94946	-475.69965	1140.90674	1174.01624	-492.99319	1029.27527	1173.38782	-511.70953	893.35339	1207.77295	-547.40076	800.07422	1167.63110	-511.39951	792.17981	1178.40491	-537.76471	721.89142	1537.29492	-557.84558	945.74542	1300.29700	-562.32635	943.63312	1482.92053	-396.94684	965.76703	1334.65491	-400.41296	965.05396	1567.63721	-483.07294	642.98822	1525.20776	-465.03238	467.73056	1526.85498	-389.76794	283.67484	1482.92371	-343.54263	77.87142	1447.07068	-299.56232	45.97059	1455.75281	-493.14203	36.45551	1256.96753	-590.23920	653.32703	1293.01636	-665.88959	491.59811	1291.30762	-622.68524	301.49185	1338.11951	-589.33728	88.71014	1392.01697	-544.12280	58.29505	1351.43518	-722.48065	46.05377				1424.57874	-476.40091	1685.27441															 
